<svg xmlns="http://www.w3.org/2000/svg" viewBox="0 0 243.99 229.26"><defs><style>.cls-1{fill:#fffb6c;}.cls-2{fill:#5a76ff;}</style></defs><title>资源 12</title><g id="图层_2" data-name="图层 2"><g id="图层_1-2" data-name="图层 1"><path class="cls-1" d="M79.78,17.4S122.28-1.34,145.17,2s49.77,12.11,76.91,58.43,21.71,62.59,11.73,94.3c-6.85,17.67-51.58,54.78-51.58,54.78s-29.44,28.4-87.94,12S9.57,177.19,1.35,119C-1,58.43,79.78,17.4,79.78,17.4Z"/><path class="cls-2" d="M96.06,98.34c0-.58-.51,0-1.05-1.18A13.53,13.53,0,0,1,93,96c0-.45.06-.19-.36-1.06.07-.22-.91-.66-.66-1.26-.08-2.49.15-6,.35-11.28,0-2.4,2.39-4.14,2.56-7.18a18.37,18.37,0,0,0,.42-1.94c0-.64.18-.94.14-2.51a7.77,7.77,0,0,1-.13-.9c0-.17-.21-.26-.21-.44a1.17,1.17,0,0,0-.28-.72c-.57-1.18-1.57-.48-2.43,1.49a2.44,2.44,0,0,0-.9.13c0-.11.37-.43.37-.54-.17,0-.53.29-.48.14,0,.1,0,.16-.43.47a1.87,1.87,0,0,0-.91.6c0,.09-.18.31-.07.26.59-.25.07.37.11.5s.69.3,0,1.22a2.06,2.06,0,0,1-.56,1.09c-.09.13.37.07.24.21s-.17.1-.32.91c.73,1.31-.58,2.4-.85,4.13-.19.35-.3.9-.68,1.6.25.5-.62,1.31.11,1.83a3.57,3.57,0,0,0-.11,2.83c-.41.13-.09.17.07.23,0,1.23-.57,1.41-.37,4.23-.1.6-.48.65.31,1.82,0,.59.05.74.78,2,.72,2.23,3,7.4,6.87,5.3-.16-.16-.45-.23-.51-.47a1.93,1.93,0,0,1,1-.32M92.21,73.54c-.25-.52-.06-1.16.29-2.06.35-.09.34,0,.29.11-.19.42.09.65-.4,1.13.37.13,0,.52-.18.82"/><path class="cls-2" d="M152.1,103.3c0-.1.1-.15.1-.21a3.83,3.83,0,0,0-.11-.82c-.05-.35.18-.63.31-.95,0-.76,0-1.49-.1-3.21.2-.45.43-.41.29-2a1.3,1.3,0,0,1-.1-1.34c1.23-8.11,3.61-19.81,9-30.24.31-.31.13-.66.21-1-.47-.36-1.33-.25-2.83.09a3.66,3.66,0,0,0-.75-.47c0-.1.56,0,.64-.09-.15-.09-.58-.19-.44-.25-.1,0-.11.1-.63,0a1.89,1.89,0,0,0-1.06-.32c-2.16,3-3.29,8.57-5.24,13.86.2.63-.75,1.71-.12,2.55-1.16,1.65,0,3.37-1.08,4.74-.26,0-.33.13-.09.34-.54.87-.11,1.79-.88,3.06-.06,1.4-1,3.44-.27,5.91,0,.53,0,.33.28,1.29.45,2-.41,4.81,0,8.06.1.47,1.07.9,2,1.4,0-.28-.18-.6,0-.88a1.94,1.94,0,0,1,.94.52M157,66.75a2.67,2.67,0,0,1,1.18-2.1c.43.25,0,.44-.69,1.22.29.33-.21.59-.49.88"/><path class="cls-2" d="M146.45,136.26c0,.12,0,.19,0,.25a5.54,5.54,0,0,1,.24.85c0,.43-.24.71-.74,1.65-.4,2.55-3.23,5.31-5.44,7.28a25.73,25.73,0,0,0-2.15,1.71c-.6,1.21-2.51.52-3.91,2.14a28.85,28.85,0,0,0-6.44,2.22,2.06,2.06,0,0,1-1.57.31,2,2,0,0,0-1.16.07,6.43,6.43,0,0,1-3.12.19,6.18,6.18,0,0,1-1.64.1,2.24,2.24,0,0,0-1-.16,11.78,11.78,0,0,1-8.31-4.42c-.43-.12-.51-.75-.81-1-.46-.45-1.16-.63-1.16-1.58a4.91,4.91,0,0,0-1.21-1.44,5.07,5.07,0,0,1-.41-1.24,1.18,1.18,0,0,0-.12-.54c-1.1-1.87-.85-4.71-1.81-8.6-.43-1.19-1.39-5-3.23-.45a2.79,2.79,0,0,0-1-.21c-.07-.18.39-.43.38-.59-.2,0-.61.14-.58-.06,0,.11,0,.23-.46.45a1.2,1.2,0,0,0-1.07.33c1.11,2.13.57,4.73,1.38,8.43.47,1.09.57,1.13,1.57,3.16a1.92,1.92,0,0,0,.73,1.17c.5.5.51,1.44,1.16,1.85.07,0,.08.15.08.26.69,2.61,3.67,3.94,6.05,6.14,1.21.39,3,2.1,4.73,1.77a11.06,11.06,0,0,0,2.32.93,7.37,7.37,0,0,1,1.67-.08c.66.62,2.23.56,3.53.15,1.62-.41,2.94.1,5.41-.44,1.71-.37,2.62-.68,5.34-1.45a3.37,3.37,0,0,0,1.54-.77,8.92,8.92,0,0,0,3.1-1.6c.61-.23.69-1,2.06-1.67.9-1.67,13.33-11.09,8.15-15.65-.53-.14-1.28,0-1.45-.24.19.34.51.67.46,1.1a2.48,2.48,0,0,1-1.07-.26m-43.16,3a6.56,6.56,0,0,1-.46-3.68c.58.17.35.76.3,2.18.48.34.22,1,.16,1.5"/><path class="cls-2" d="M59.56,209.41a98.3,98.3,0,0,0,25.06,10c.4.12.79.23,1.18.37a92.63,92.63,0,0,0,58.29,7.82c1.51-.25,3-.71,4.44-1.09,36.64-7.94,74.21-47.33,88.17-73.79.37-.81.73-1.58,1.13-2.32A22.52,22.52,0,0,1,239,148.2a15.91,15.91,0,0,0,1.52-3.41,56.81,56.81,0,0,0,2-8.57c.86-4.89-.34-10.18.67-15.76a33,33,0,0,0,.28-12.4c.25-25.9-17.87-45.13-30.73-65.84C197.64,22.62,177.39,3.45,150.9.12,139-.3,126.79.21,114.79,4.31c-40.58,5.94-74.45,32.75-99.28,65C1.28,88.72-2.89,115,1.9,139.39c6.78,33.9,34.32,67.53,66.55,77.55-1.95-2.45-7.14-3.89-10.4-7.32a31.51,31.51,0,0,0,7,2.78c1.9.78,1.64,1.21,2.89,1.77,1.13.28,2,.14,3.18.94-.49-.4-1.71-1-1-1.22.32-.21,2.54,1.52,3.08.46C31.14,197.48-.68,152.11,6.38,105.43c.32-4.69,2.49-10.23,4.49-15.28.74-2,.9-4,1.77-7.07a8.08,8.08,0,0,1,.38-.93C27.64,60.87,51.56,35.38,73.66,23.79c12.62-8.74,27.69-11.67,42.87-15.44,3-.64,8.39-2.69,11-3.07l.24,0a175.48,175.48,0,0,1,20.7-.83c11,.3,22.08,6.87,32.66,11.4A283.25,283.25,0,0,1,208,42.58c9.87,17.73,26.88,34.59,29.58,56,.08.65.13,1.29.18,1.93.1,1,.13,2,.26,4.07.16,3.81,1.79,8.36,1.53,12.48,0,.2-.4,2.31-.63,3.32-1,4.91-.14,10.33-1,15.65-.15,1.14-.42,2.27-.67,3.4-10.38,36.08-58.4,77.22-87.11,83.2-27.22,8.78-54.86-2-80.51-11.61-6.06-3.05-12.36-3.44-17.68-8.78,3.74,4.39,9.23,7.05,15,9.78-2.6-.36-3.36-.77-7.39-2.59m-44.25-44c7.19,11.13,13.84,23.24,25,32C34.16,193.52,28,186.52,24,179.58c-3.52-4.58-5.87-9.44-8.69-14.17"/></g></g></svg>